# xmcd CD database file
#
# Track frame offsets:
#	150
#	18055
#	44118
#	79068
#	105960
#	126840
#	143915
#	164100
#	177137
#
# Disc length: 2654 seconds
#
# Revision: 0
# Processed by: cddbd v1.5PL3 Copyright (c) Steve Scherf et al.
# Submitted via: CDex 1.51
#
DISCID=720a5c09
DTITLE=Various Artist - Guitar Wars (Bonus CD Edition)
DYEAR=2004
DGENRE=Hard Rock
TTITLE0=Scarified (LIVE)
TTITLE1=When The Levee Breaks (LIVE)
TTITLE2=Hole Hearted (LIVE)
TTITLE3=Going To California (LIVE)
TTITLE4=Green Tinted Sixties Mind (LIVE)
TTITLE5=Rainbows (LIVE)
TTITLE6=Clocks (LIVE)
TTITLE7=Communication Breakdown (LIVE)
TTITLE8=Red Rooster (LIVE)
EXTD=YEAR: 2004
EXTT0=
EXTT1=
EXTT2=
EXTT3=
EXTT4=
EXTT5=
EXTT6=
EXTT7=
EXTT8=
PLAYORDER=
